<svg width="334pt" height="310pt"
 viewBox="0.00 0.00 333.55 310.40" xmlns="http://www.w3.org/2000/svg" xmlns:xlink="http://www.w3.org/1999/xlink">
<g id="graph0" class="graph" transform="scale(1 1) rotate(0) translate(4 306.4)">
<title>%0</title>
<polygon fill="#ffffff" stroke="transparent" points="-4,4 -4,-306.4 329.5522,-306.4 329.5522,4 -4,4"/>
<!-- {q1,q2,2} -->
<g id="node1" class="node">
<title>{q1,q2,2}</title>
<ellipse fill="none" stroke="#000000" stroke-width="3" cx="100.2761" cy="-18" rx="49.0532" ry="18"/>
<text text-anchor="middle" x="100.2761" y="-13.8" font-family="Times,serif" font-size="14.00" fill="#000000">{q1,q2,2}</text>
</g>
<!-- {q1,q2,2}&#45;&gt;{q1,q2,2} -->
<g id="edge3" class="edge">
<title>{q1,q2,2}&#45;&gt;{q1,q2,2}</title>
<path fill="none" stroke="#000000" d="M144.2753,-26.2319C157.366,-25.9861 167.5522,-23.2422 167.5522,-18 167.5522,-14.2322 162.29,-11.7549 154.4693,-10.5683"/>
<polygon fill="#000000" stroke="#000000" points="154.5185,-7.0615 144.2753,-9.7681 153.9707,-14.04 154.5185,-7.0615"/>
<text text-anchor="middle" x="171.0522" y="-13.8" font-family="Times,serif" font-size="14.00" fill="#000000">b</text>
</g>
<!-- {q0,q0,0} -->
<g id="node2" class="node">
<title>{q0,q0,0}</title>
<polygon fill="none" stroke="#000000" points="175.1614,-280.3946 164.2907,-295.6228 120.2761,-302.4 76.2615,-295.6228 65.3908,-280.3946 95.8498,-268.1826 144.7023,-268.1826 175.1614,-280.3946"/>
<text text-anchor="middle" x="120.2761" y="-280.2" font-family="Times,serif" font-size="14.00" fill="#000000">{q0,q0,0}</text>
</g>
<!-- {q0,q0,0}&#45;&gt;{q0,q0,0} -->
<g id="edge6" class="edge">
<title>{q0,q0,0}&#45;&gt;{q0,q0,0}</title>
<path fill="none" stroke="#000000" d="M166.4164,-292.648C181.2287,-292.5634 192.9684,-289.8141 192.9684,-284.4 192.9684,-280.0464 185.3772,-277.4159 174.7015,-276.5084"/>
<polygon fill="#000000" stroke="#000000" points="174.7559,-273.0083 164.6391,-276.1545 174.5098,-280.0039 174.7559,-273.0083"/>
<text text-anchor="middle" x="201.3257" y="-280.2" font-family="Times,serif" font-size="14.00" fill="#000000">a,b</text>
</g>
<!-- {q1,q0,1} -->
<g id="node4" class="node">
<title>{q1,q0,1}</title>
<ellipse fill="none" stroke="#000000" cx="49.2761" cy="-195.6" rx="49.0532" ry="18"/>
<text text-anchor="middle" x="49.2761" y="-191.4" font-family="Times,serif" font-size="14.00" fill="#000000">{q1,q0,1}</text>
</g>
<!-- {q0,q0,0}&#45;&gt;{q1,q0,1} -->
<g id="edge8" class="edge">
<title>{q0,q0,0}&#45;&gt;{q1,q0,1}</title>
<path fill="none" stroke="#000000" d="M107.2536,-268.1127C96.7148,-254.9318 81.6863,-236.1356 69.571,-220.9829"/>
<polygon fill="#000000" stroke="#000000" points="72.1654,-218.6231 63.187,-212.9984 66.6981,-222.9945 72.1654,-218.6231"/>
<text text-anchor="middle" x="93.7761" y="-235.8" font-family="Times,serif" font-size="14.00" fill="#000000">b</text>
</g>
<!-- {q0,q1,0} -->
<g id="node6" class="node">
<title>{q0,q1,0}</title>
<ellipse fill="none" stroke="#000000" cx="191.2761" cy="-195.6" rx="49.0532" ry="18"/>
<text text-anchor="middle" x="191.2761" y="-191.4" font-family="Times,serif" font-size="14.00" fill="#000000">{q0,q1,0}</text>
</g>
<!-- {q0,q0,0}&#45;&gt;{q0,q1,0} -->
<g id="edge7" class="edge">
<title>{q0,q0,0}&#45;&gt;{q0,q1,0}</title>
<path fill="none" stroke="#000000" d="M133.2986,-268.1127C143.8374,-254.9318 158.8659,-236.1356 170.9812,-220.9829"/>
<polygon fill="#000000" stroke="#000000" points="173.854,-222.9945 177.3652,-212.9984 168.3867,-218.6231 173.854,-222.9945"/>
<text text-anchor="middle" x="164.3834" y="-235.8" font-family="Times,serif" font-size="14.00" fill="#000000">a</text>
</g>
<!-- {q0,q2,0} -->
<g id="node3" class="node">
<title>{q0,q2,0}</title>
<ellipse fill="none" stroke="#000000" cx="100.2761" cy="-106.8" rx="49.0532" ry="18"/>
<text text-anchor="middle" x="100.2761" y="-102.6" font-family="Times,serif" font-size="14.00" fill="#000000">{q0,q2,0}</text>
</g>
<!-- {q0,q2,0}&#45;&gt;{q1,q2,2} -->
<g id="edge2" class="edge">
<title>{q0,q2,0}&#45;&gt;{q1,q2,2}</title>
<path fill="none" stroke="#000000" d="M100.2761,-88.4006C100.2761,-76.2949 100.2761,-60.2076 100.2761,-46.4674"/>
<polygon fill="#000000" stroke="#000000" points="103.7762,-46.072 100.2761,-36.072 96.7762,-46.0721 103.7762,-46.072"/>
<text text-anchor="middle" x="103.7761" y="-58.2" font-family="Times,serif" font-size="14.00" fill="#000000">b</text>
</g>
<!-- {q0,q2,0}&#45;&gt;{q0,q2,0} -->
<g id="edge1" class="edge">
<title>{q0,q2,0}&#45;&gt;{q0,q2,0}</title>
<path fill="none" stroke="#000000" d="M144.2753,-115.0319C157.366,-114.7861 167.5522,-112.0422 167.5522,-106.8 167.5522,-103.0322 162.29,-100.5549 154.4693,-99.3683"/>
<polygon fill="#000000" stroke="#000000" points="154.5185,-95.8615 144.2753,-98.5681 153.9707,-102.84 154.5185,-95.8615"/>
<text text-anchor="middle" x="175.9095" y="-102.6" font-family="Times,serif" font-size="14.00" fill="#000000">a,b</text>
</g>
<!-- {q1,q0,1}&#45;&gt;{q1,q0,1} -->
<g id="edge4" class="edge">
<title>{q1,q0,1}&#45;&gt;{q1,q0,1}</title>
<path fill="none" stroke="#000000" d="M93.2753,-203.8319C106.366,-203.5861 116.5522,-200.8422 116.5522,-195.6 116.5522,-191.8322 111.29,-189.3549 103.4693,-188.1683"/>
<polygon fill="#000000" stroke="#000000" points="103.5185,-184.6615 93.2753,-187.3681 102.9707,-191.64 103.5185,-184.6615"/>
<text text-anchor="middle" x="120.0522" y="-191.4" font-family="Times,serif" font-size="14.00" fill="#000000">b</text>
</g>
<!-- {q1,q1,1} -->
<g id="node5" class="node">
<title>{q1,q1,1}</title>
<ellipse fill="none" stroke="#000000" cx="251.2761" cy="-106.8" rx="49.0532" ry="18"/>
<text text-anchor="middle" x="251.2761" y="-102.6" font-family="Times,serif" font-size="14.00" fill="#000000">{q1,q1,1}</text>
</g>
<!-- {q1,q1,1}&#45;&gt;{q1,q1,1} -->
<g id="edge5" class="edge">
<title>{q1,q1,1}&#45;&gt;{q1,q1,1}</title>
<path fill="none" stroke="#000000" d="M295.2753,-115.0319C308.366,-114.7861 318.5522,-112.0422 318.5522,-106.8 318.5522,-103.0322 313.29,-100.5549 305.4693,-99.3683"/>
<polygon fill="#000000" stroke="#000000" points="305.5185,-95.8615 295.2753,-98.5681 304.9707,-102.84 305.5185,-95.8615"/>
<text text-anchor="middle" x="322.0522" y="-102.6" font-family="Times,serif" font-size="14.00" fill="#000000">b</text>
</g>
<!-- {q0,q1,0}&#45;&gt;{q0,q2,0} -->
<g id="edge9" class="edge">
<title>{q0,q1,0}&#45;&gt;{q0,q2,0}</title>
<path fill="none" stroke="#000000" d="M173.7304,-178.4785C159.8824,-164.9653 140.394,-145.948 124.9704,-130.8973"/>
<polygon fill="#000000" stroke="#000000" points="127.3694,-128.348 117.7679,-123.869 122.4806,-133.358 127.3694,-128.348"/>
<text text-anchor="middle" x="156.3834" y="-147" font-family="Times,serif" font-size="14.00" fill="#000000">a</text>
</g>
<!-- {q0,q1,0}&#45;&gt;{q1,q1,1} -->
<g id="edge11" class="edge">
<title>{q0,q1,0}&#45;&gt;{q1,q1,1}</title>
<path fill="none" stroke="#000000" d="M203.1301,-178.056C211.841,-165.1638 223.8214,-147.4329 233.652,-132.8837"/>
<polygon fill="#000000" stroke="#000000" points="236.7481,-134.553 239.4466,-124.3076 230.9479,-130.634 236.7481,-134.553"/>
<text text-anchor="middle" x="229.7761" y="-147" font-family="Times,serif" font-size="14.00" fill="#000000">b</text>
</g>
<!-- {q0,q1,0}&#45;&gt;{q0,q1,0} -->
<g id="edge10" class="edge">
<title>{q0,q1,0}&#45;&gt;{q0,q1,0}</title>
<path fill="none" stroke="#000000" d="M235.2753,-203.8319C248.366,-203.5861 258.5522,-200.8422 258.5522,-195.6 258.5522,-191.8322 253.29,-189.3549 245.4693,-188.1683"/>
<polygon fill="#000000" stroke="#000000" points="245.5185,-184.6615 235.2753,-187.3681 244.9707,-191.64 245.5185,-184.6615"/>
<text text-anchor="middle" x="262.0522" y="-191.4" font-family="Times,serif" font-size="14.00" fill="#000000">b</text>
</g>
</g>
</svg>
