<svg width="367pt" height="310pt"
 viewBox="0.00 0.00 367.13 310.40" xmlns="http://www.w3.org/2000/svg" xmlns:xlink="http://www.w3.org/1999/xlink">
<g id="graph0" class="graph" transform="scale(1 1) rotate(0) translate(4 306.4)">
<title>%0</title>
<polygon fill="#ffffff" stroke="transparent" points="-4,4 -4,-306.4 363.1254,-306.4 363.1254,4 -4,4"/>
<!-- q2_second -->
<g id="node1" class="node">
<title>q2_second</title>
<ellipse fill="none" stroke="#000000" stroke-width="3" cx="233.0744" cy="-18" rx="52.1732" ry="18"/>
<text text-anchor="middle" x="233.0744" y="-13.8" font-family="Times,serif" font-size="14.00" fill="#000000">q2_second</text>
</g>
<!-- q2_second&#45;&gt;q2_second -->
<g id="edge3" class="edge">
<title>q2_second&#45;&gt;q2_second</title>
<path fill="none" stroke="#000000" d="M279.7457,-26.2178C293.1076,-25.8955 303.4108,-23.1563 303.4108,-18 303.4108,-14.2537 297.9718,-11.7832 289.8724,-10.5887"/>
<polygon fill="#000000" stroke="#000000" points="289.992,-7.0873 279.7457,-9.7822 289.4362,-14.0652 289.992,-7.0873"/>
<text text-anchor="middle" x="311.7681" y="-13.8" font-family="Times,serif" font-size="14.00" fill="#000000">a,b</text>
</g>
<!-- q1_first -->
<g id="node2" class="node">
<title>q1_first</title>
<ellipse fill="none" stroke="#000000" stroke-width="3" cx="84.0744" cy="-106.8" rx="41.149" ry="18"/>
<text text-anchor="middle" x="84.0744" y="-102.6" font-family="Times,serif" font-size="14.00" fill="#000000">q1_first</text>
</g>
<!-- q1_first&#45;&gt;q1_first -->
<g id="edge4" class="edge">
<title>q1_first&#45;&gt;q1_first</title>
<path fill="none" stroke="#000000" d="M120.7071,-115.0495C133.1487,-115.0928 143.1489,-112.343 143.1489,-106.8 143.1489,-102.9026 138.2049,-100.3861 130.9446,-99.2505"/>
<polygon fill="#000000" stroke="#000000" points="130.9225,-95.7409 120.7071,-98.5505 130.445,-102.7246 130.9225,-95.7409"/>
<text text-anchor="middle" x="146.6489" y="-102.6" font-family="Times,serif" font-size="14.00" fill="#000000">b</text>
</g>
<!-- q0 -->
<g id="node3" class="node">
<title>q0</title>
<polygon fill="none" stroke="#000000" points="200.0744,-280.3946 194.7268,-295.6228 173.0744,-302.4 151.4221,-295.6228 146.0744,-280.3946 161.0583,-268.1826 185.0906,-268.1826 200.0744,-280.3946"/>
<text text-anchor="middle" x="173.0744" y="-280.2" font-family="Times,serif" font-size="14.00" fill="#000000">q0</text>
</g>
<!-- q0&#45;&gt;q1_first -->
<g id="edge6" class="edge">
<title>q0&#45;&gt;q1_first</title>
<path fill="none" stroke="#000000" d="M166.2679,-267.8694C157.3969,-246.6671 141.1157,-208.8963 125.0744,-177.6 117.3362,-162.5028 107.894,-146.0818 100.0222,-132.8584"/>
<polygon fill="#000000" stroke="#000000" points="103.0132,-131.0404 94.8637,-124.2701 97.0125,-134.6448 103.0132,-131.0404"/>
<text text-anchor="middle" x="146.5744" y="-191.4" font-family="Times,serif" font-size="14.00" fill="#000000">b</text>
</g>
<!-- q1_second -->
<g id="node4" class="node">
<title>q1_second</title>
<ellipse fill="none" stroke="#000000" cx="233.0744" cy="-106.8" rx="52.1732" ry="18"/>
<text text-anchor="middle" x="233.0744" y="-102.6" font-family="Times,serif" font-size="14.00" fill="#000000">q1_second</text>
</g>
<!-- q0&#45;&gt;q1_second -->
<g id="edge8" class="edge">
<title>q0&#45;&gt;q1_second</title>
<path fill="none" stroke="#000000" d="M177.4692,-267.97C183.2247,-246.8741 193.8806,-209.2154 204.8598,-177.6 209.91,-163.0576 216.1974,-147.1102 221.5544,-134.0385"/>
<polygon fill="#000000" stroke="#000000" points="224.84,-135.2521 225.4336,-124.6739 218.3729,-132.5731 224.84,-135.2521"/>
<text text-anchor="middle" x="208.1817" y="-191.4" font-family="Times,serif" font-size="14.00" fill="#000000">a</text>
</g>
<!-- q0_first -->
<g id="node5" class="node">
<title>q0_first</title>
<ellipse fill="none" stroke="#000000" cx="41.0744" cy="-195.6" rx="41.149" ry="18"/>
<text text-anchor="middle" x="41.0744" y="-191.4" font-family="Times,serif" font-size="14.00" fill="#000000">q0_first</text>
</g>
<!-- q0&#45;&gt;q0_first -->
<g id="edge5" class="edge">
<title>q0&#45;&gt;q0_first</title>
<path fill="none" stroke="#000000" d="M155.5459,-272.608C134.2493,-258.2813 97.9466,-233.8594 71.9299,-216.3573"/>
<polygon fill="#000000" stroke="#000000" points="73.7886,-213.3894 63.5377,-210.7116 69.8813,-219.1975 73.7886,-213.3894"/>
<text text-anchor="middle" x="127.4317" y="-235.8" font-family="Times,serif" font-size="14.00" fill="#000000">a,b</text>
</g>
<!-- q0_second -->
<g id="node6" class="node">
<title>q0_second</title>
<ellipse fill="none" stroke="#000000" cx="272.0744" cy="-195.6" rx="52.1732" ry="18"/>
<text text-anchor="middle" x="272.0744" y="-191.4" font-family="Times,serif" font-size="14.00" fill="#000000">q0_second</text>
</g>
<!-- q0&#45;&gt;q0_second -->
<g id="edge7" class="edge">
<title>q0&#45;&gt;q0_second</title>
<path fill="none" stroke="#000000" d="M188.5432,-270.525C203.8654,-256.7814 227.6193,-235.4749 245.8852,-219.0909"/>
<polygon fill="#000000" stroke="#000000" points="248.2298,-221.6897 253.3369,-212.407 243.5557,-216.4787 248.2298,-221.6897"/>
<text text-anchor="middle" x="240.4317" y="-235.8" font-family="Times,serif" font-size="14.00" fill="#000000">a,b</text>
</g>
<!-- q1_second&#45;&gt;q2_second -->
<g id="edge2" class="edge">
<title>q1_second&#45;&gt;q2_second</title>
<path fill="none" stroke="#000000" d="M233.0744,-88.4006C233.0744,-76.2949 233.0744,-60.2076 233.0744,-46.4674"/>
<polygon fill="#000000" stroke="#000000" points="236.5745,-46.072 233.0744,-36.072 229.5745,-46.0721 236.5745,-46.072"/>
<text text-anchor="middle" x="236.1817" y="-58.2" font-family="Times,serif" font-size="14.00" fill="#000000">a</text>
</g>
<!-- q1_second&#45;&gt;q1_second -->
<g id="edge1" class="edge">
<title>q1_second&#45;&gt;q1_second</title>
<path fill="none" stroke="#000000" d="M279.7457,-115.0178C293.1076,-114.6955 303.4108,-111.9563 303.4108,-106.8 303.4108,-103.0537 297.9718,-100.5832 289.8724,-99.3887"/>
<polygon fill="#000000" stroke="#000000" points="289.992,-95.8873 279.7457,-98.5822 289.4362,-102.8652 289.992,-95.8873"/>
<text text-anchor="middle" x="306.9108" y="-102.6" font-family="Times,serif" font-size="14.00" fill="#000000">b</text>
</g>
<!-- q0_first&#45;&gt;q1_first -->
<g id="edge10" class="edge">
<title>q0_first&#45;&gt;q1_first</title>
<path fill="none" stroke="#000000" d="M49.7761,-177.63C55.8775,-165.0299 64.1409,-147.965 71.0279,-133.7426"/>
<polygon fill="#000000" stroke="#000000" points="74.3242,-134.966 75.5324,-124.4402 68.024,-131.9151 74.3242,-134.966"/>
<text text-anchor="middle" x="70.5744" y="-147" font-family="Times,serif" font-size="14.00" fill="#000000">b</text>
</g>
<!-- q0_first&#45;&gt;q0_first -->
<g id="edge9" class="edge">
<title>q0_first&#45;&gt;q0_first</title>
<path fill="none" stroke="#000000" d="M77.7071,-203.8495C90.1487,-203.8928 100.1489,-201.143 100.1489,-195.6 100.1489,-191.7026 95.2049,-189.1861 87.9446,-188.0505"/>
<polygon fill="#000000" stroke="#000000" points="87.9225,-184.5409 77.7071,-187.3505 87.445,-191.5246 87.9225,-184.5409"/>
<text text-anchor="middle" x="108.5062" y="-191.4" font-family="Times,serif" font-size="14.00" fill="#000000">a,b</text>
</g>
<!-- q0_second&#45;&gt;q1_second -->
<g id="edge12" class="edge">
<title>q0_second&#45;&gt;q1_second</title>
<path fill="none" stroke="#000000" d="M264.1822,-177.63C258.6846,-165.1123 251.2515,-148.1879 245.03,-134.0218"/>
<polygon fill="#000000" stroke="#000000" points="248.1807,-132.4917 240.9549,-124.7433 241.7716,-135.3066 248.1807,-132.4917"/>
<text text-anchor="middle" x="258.1817" y="-147" font-family="Times,serif" font-size="14.00" fill="#000000">a</text>
</g>
<!-- q0_second&#45;&gt;q0_second -->
<g id="edge11" class="edge">
<title>q0_second&#45;&gt;q0_second</title>
<path fill="none" stroke="#000000" d="M318.7457,-203.8178C332.1076,-203.4955 342.4108,-200.7563 342.4108,-195.6 342.4108,-191.8537 336.9718,-189.3832 328.8724,-188.1887"/>
<polygon fill="#000000" stroke="#000000" points="328.992,-184.6873 318.7457,-187.3822 328.4362,-191.6652 328.992,-184.6873"/>
<text text-anchor="middle" x="350.7681" y="-191.4" font-family="Times,serif" font-size="14.00" fill="#000000">a,b</text>
</g>
</g>
</svg>
