<svg width="97pt" height="133pt"
 viewBox="0.00 0.00 96.71 132.80" xmlns="http://www.w3.org/2000/svg" xmlns:xlink="http://www.w3.org/1999/xlink">
<g id="graph0" class="graph" transform="scale(1 1) rotate(0) translate(4 128.8)">
<title>%0</title>
<polygon fill="#ffffff" stroke="transparent" points="-4,4 -4,-128.8 92.7146,-128.8 92.7146,4 -4,4"/>
<!-- q1 -->
<g id="node1" class="node">
<title>q1</title>
<ellipse fill="none" stroke="#000000" stroke-width="3" cx="27" cy="-18" rx="27" ry="18"/>
<text text-anchor="middle" x="27" y="-13.8" font-family="Times,serif" font-size="14.00" fill="#000000">q1</text>
</g>
<!-- q1&#45;&gt;q1 -->
<g id="edge1" class="edge">
<title>q1&#45;&gt;q1</title>
<path fill="none" stroke="#000000" d="M51.5325,-26.1211C62.5078,-26.8945 72,-24.1875 72,-18 72,-13.8428 67.7151,-11.2567 61.5743,-10.2417"/>
<polygon fill="#000000" stroke="#000000" points="61.6524,-6.7424 51.5325,-9.8789 61.3995,-13.7378 61.6524,-6.7424"/>
<text text-anchor="middle" x="75.5" y="-13.8" font-family="Times,serif" font-size="14.00" fill="#000000">b</text>
</g>
<!-- q0 -->
<g id="node2" class="node">
<title>q0</title>
<polygon fill="none" stroke="#000000" points="54,-102.7946 48.6523,-118.0228 27,-124.8 5.3477,-118.0228 0,-102.7946 14.9839,-90.5826 39.0161,-90.5826 54,-102.7946"/>
<text text-anchor="middle" x="27" y="-102.6" font-family="Times,serif" font-size="14.00" fill="#000000">q0</text>
</g>
<!-- q0&#45;&gt;q1 -->
<g id="edge3" class="edge">
<title>q0&#45;&gt;q1</title>
<path fill="none" stroke="#000000" d="M27,-90.5127C27,-78.1032 27,-60.7164 27,-46.0788"/>
<polygon fill="#000000" stroke="#000000" points="30.5001,-46.0168 27,-36.0168 23.5001,-46.0168 30.5001,-46.0168"/>
<text text-anchor="middle" x="30.5" y="-58.2" font-family="Times,serif" font-size="14.00" fill="#000000">b</text>
</g>
<!-- q0&#45;&gt;q0 -->
<g id="edge2" class="edge">
<title>q0&#45;&gt;q0</title>
<path fill="none" stroke="#000000" d="M50.1534,-114.8063C61.7003,-115.9141 72,-113.2453 72,-106.8 72,-102.1473 66.6328,-99.4626 59.3037,-98.7458"/>
<polygon fill="#000000" stroke="#000000" points="59.1759,-95.2472 49.2272,-98.8904 59.2764,-102.2464 59.1759,-95.2472"/>
<text text-anchor="middle" x="80.3573" y="-102.6" font-family="Times,serif" font-size="14.00" fill="#000000">a,b</text>
</g>
</g>
</svg>
