<svg width="111pt" height="222pt"
 viewBox="0.00 0.00 111.00 221.60" xmlns="http://www.w3.org/2000/svg" xmlns:xlink="http://www.w3.org/1999/xlink">
<g id="graph0" class="graph" transform="scale(1 1) rotate(0) translate(4 217.6)">
<title>%0</title>
<polygon fill="#ffffff" stroke="transparent" points="-4,4 -4,-217.6 107,-217.6 107,4 -4,4"/>
<!-- q0 -->
<g id="node1" class="node">
<title>q0</title>
<polygon fill="none" stroke="#000000" points="54,-191.5946 48.6523,-206.8228 27,-213.6 5.3477,-206.8228 0,-191.5946 14.9839,-179.3826 39.0161,-179.3826 54,-191.5946"/>
<text text-anchor="middle" x="27" y="-191.4" font-family="Times,serif" font-size="14.00" fill="#000000">q0</text>
</g>
<!-- q0&#45;&gt;q0 -->
<g id="edge1" class="edge">
<title>q0&#45;&gt;q0</title>
<path fill="none" stroke="#000000" d="M51.5325,-199.6605C62.5078,-200.0473 72,-198.6938 72,-195.6 72,-193.8719 69.0382,-192.6867 64.5105,-192.0446"/>
<polygon fill="#000000" stroke="#000000" points="64.4181,-188.5343 54.2408,-191.479 64.0332,-195.5237 64.4181,-188.5343"/>
<text text-anchor="middle" x="75.1073" y="-191.4" font-family="Times,serif" font-size="14.00" fill="#000000">a</text>
</g>
<!-- q0&#45;&gt;q0 -->
<g id="edge2" class="edge">
<title>q0&#45;&gt;q0</title>
<path fill="none" stroke="#000000" d="M50.2619,-202.5911C69.6947,-205.5788 90,-203.2484 90,-195.6 90,-189.3611 76.4894,-186.6608 60.9624,-187.4989"/>
<polygon fill="#000000" stroke="#000000" points="60.1818,-184.0603 50.5895,-188.559 60.8936,-191.0241 60.1818,-184.0603"/>
<text text-anchor="middle" x="93.5" y="-191.4" font-family="Times,serif" font-size="14.00" fill="#000000">b</text>
</g>
<!-- q1 -->
<g id="node3" class="node">
<title>q1</title>
<ellipse fill="none" stroke="#000000" cx="27" cy="-106.8" rx="27" ry="18"/>
<text text-anchor="middle" x="27" y="-102.6" font-family="Times,serif" font-size="14.00" fill="#000000">q1</text>
</g>
<!-- q0&#45;&gt;q1 -->
<g id="edge3" class="edge">
<title>q0&#45;&gt;q1</title>
<path fill="none" stroke="#000000" d="M27,-179.3127C27,-166.9032 27,-149.5164 27,-134.8788"/>
<polygon fill="#000000" stroke="#000000" points="30.5001,-134.8168 27,-124.8168 23.5001,-134.8168 30.5001,-134.8168"/>
<text text-anchor="middle" x="30.1073" y="-147" font-family="Times,serif" font-size="14.00" fill="#000000">a</text>
</g>
<!-- q2 -->
<g id="node2" class="node">
<title>q2</title>
<ellipse fill="none" stroke="#000000" stroke-width="3" cx="27" cy="-18" rx="27" ry="18"/>
<text text-anchor="middle" x="27" y="-13.8" font-family="Times,serif" font-size="14.00" fill="#000000">q2</text>
</g>
<!-- q2&#45;&gt;q2 -->
<g id="edge6" class="edge">
<title>q2&#45;&gt;q2</title>
<path fill="none" stroke="#000000" d="M53.3466,-22.1089C63.5332,-22.2915 72,-20.9219 72,-18 72,-16.1282 68.5252,-14.8934 63.3495,-14.2956"/>
<polygon fill="#000000" stroke="#000000" points="63.4799,-10.7982 53.3466,-13.8911 63.197,-17.7924 63.4799,-10.7982"/>
<text text-anchor="middle" x="75.1073" y="-13.8" font-family="Times,serif" font-size="14.00" fill="#000000">a</text>
</g>
<!-- q2&#45;&gt;q2 -->
<g id="edge7" class="edge">
<title>q2&#45;&gt;q2</title>
<path fill="none" stroke="#000000" d="M51.9011,-25.2303C70.8194,-27.8437 90,-25.4336 90,-18 90,-11.9021 77.0932,-9.1846 62.0119,-9.8475"/>
<polygon fill="#000000" stroke="#000000" points="61.5418,-6.3757 51.9011,-10.7697 62.1777,-13.3468 61.5418,-6.3757"/>
<text text-anchor="middle" x="93.5" y="-13.8" font-family="Times,serif" font-size="14.00" fill="#000000">b</text>
</g>
<!-- q1&#45;&gt;q2 -->
<g id="edge5" class="edge">
<title>q1&#45;&gt;q2</title>
<path fill="none" stroke="#000000" d="M27,-88.4006C27,-76.2949 27,-60.2076 27,-46.4674"/>
<polygon fill="#000000" stroke="#000000" points="30.5001,-46.072 27,-36.072 23.5001,-46.0721 30.5001,-46.072"/>
<text text-anchor="middle" x="30.1073" y="-58.2" font-family="Times,serif" font-size="14.00" fill="#000000">a</text>
</g>
<!-- q1&#45;&gt;q1 -->
<g id="edge4" class="edge">
<title>q1&#45;&gt;q1</title>
<path fill="none" stroke="#000000" d="M51.5325,-114.9211C62.5078,-115.6945 72,-112.9875 72,-106.8 72,-102.6428 67.7151,-100.0567 61.5743,-99.0417"/>
<polygon fill="#000000" stroke="#000000" points="61.6524,-95.5424 51.5325,-98.6789 61.3995,-102.5378 61.6524,-95.5424"/>
<text text-anchor="middle" x="75.5" y="-102.6" font-family="Times,serif" font-size="14.00" fill="#000000">b</text>
</g>
</g>
</svg>
