<svg width="106pt" height="222pt"
 viewBox="0.00 0.00 106.43 221.60" xmlns="http://www.w3.org/2000/svg" xmlns:xlink="http://www.w3.org/1999/xlink">
<g id="graph0" class="graph" transform="scale(1 1) rotate(0) translate(4 217.6)">
<title>%0</title>
<polygon fill="#ffffff" stroke="transparent" points="-4,4 -4,-217.6 102.4292,-217.6 102.4292,4 -4,4"/>
<!-- q1 -->
<g id="node1" class="node">
<title>q1</title>
<ellipse fill="none" stroke="#000000" stroke-width="3" cx="27" cy="-106.8" rx="27" ry="18"/>
<text text-anchor="middle" x="27" y="-102.6" font-family="Times,serif" font-size="14.00" fill="#000000">q1</text>
</g>
<!-- q1&#45;&gt;q1 -->
<g id="edge1" class="edge">
<title>q1&#45;&gt;q1</title>
<path fill="none" stroke="#000000" d="M51.5325,-114.9211C62.5078,-115.6945 72,-112.9875 72,-106.8 72,-102.6428 67.7151,-100.0567 61.5743,-99.0417"/>
<polygon fill="#000000" stroke="#000000" points="61.6524,-95.5424 51.5325,-98.6789 61.3995,-102.5378 61.6524,-95.5424"/>
<text text-anchor="middle" x="75.5" y="-102.6" font-family="Times,serif" font-size="14.00" fill="#000000">b</text>
</g>
<!-- q2 -->
<g id="node3" class="node">
<title>q2</title>
<ellipse fill="none" stroke="#000000" cx="27" cy="-18" rx="27" ry="18"/>
<text text-anchor="middle" x="27" y="-13.8" font-family="Times,serif" font-size="14.00" fill="#000000">q2</text>
</g>
<!-- q1&#45;&gt;q2 -->
<g id="edge2" class="edge">
<title>q1&#45;&gt;q2</title>
<path fill="none" stroke="#000000" d="M27,-88.4006C27,-76.2949 27,-60.2076 27,-46.4674"/>
<polygon fill="#000000" stroke="#000000" points="30.5001,-46.072 27,-36.072 23.5001,-46.0721 30.5001,-46.072"/>
<text text-anchor="middle" x="30.1073" y="-58.2" font-family="Times,serif" font-size="14.00" fill="#000000">a</text>
</g>
<!-- q0 -->
<g id="node2" class="node">
<title>q0</title>
<polygon fill="none" stroke="#000000" points="54,-191.5946 48.6523,-206.8228 27,-213.6 5.3477,-206.8228 0,-191.5946 14.9839,-179.3826 39.0161,-179.3826 54,-191.5946"/>
<text text-anchor="middle" x="27" y="-191.4" font-family="Times,serif" font-size="14.00" fill="#000000">q0</text>
</g>
<!-- q0&#45;&gt;q1 -->
<g id="edge5" class="edge">
<title>q0&#45;&gt;q1</title>
<path fill="none" stroke="#000000" d="M27,-179.3127C27,-166.9032 27,-149.5164 27,-134.8788"/>
<polygon fill="#000000" stroke="#000000" points="30.5001,-134.8168 27,-124.8168 23.5001,-134.8168 30.5001,-134.8168"/>
<text text-anchor="middle" x="30.1073" y="-147" font-family="Times,serif" font-size="14.00" fill="#000000">a</text>
</g>
<!-- q0&#45;&gt;q0 -->
<g id="edge4" class="edge">
<title>q0&#45;&gt;q0</title>
<path fill="none" stroke="#000000" d="M50.1534,-203.6063C61.7003,-204.7141 72,-202.0453 72,-195.6 72,-190.9473 66.6328,-188.2626 59.3037,-187.5458"/>
<polygon fill="#000000" stroke="#000000" points="59.1759,-184.0472 49.2272,-187.6904 59.2764,-191.0464 59.1759,-184.0472"/>
<text text-anchor="middle" x="85.2146" y="-191.4" font-family="Times,serif" font-size="14.00" fill="#000000">a,b,c</text>
</g>
<!-- q2&#45;&gt;q2 -->
<g id="edge3" class="edge">
<title>q2&#45;&gt;q2</title>
<path fill="none" stroke="#000000" d="M51.5325,-26.1211C62.5078,-26.8945 72,-24.1875 72,-18 72,-13.8428 67.7151,-11.2567 61.5743,-10.2417"/>
<polygon fill="#000000" stroke="#000000" points="61.6524,-6.7424 51.5325,-9.8789 61.3995,-13.7378 61.6524,-6.7424"/>
<text text-anchor="middle" x="85.2146" y="-13.8" font-family="Times,serif" font-size="14.00" fill="#000000">a,b,c</text>
</g>
</g>
</svg>
