<svg width="183pt" height="133pt"
 viewBox="0.00 0.00 183.00 132.80" xmlns="http://www.w3.org/2000/svg" xmlns:xlink="http://www.w3.org/1999/xlink">
<g id="graph0" class="graph" transform="scale(1 1) rotate(0) translate(4 128.8)">
<title>%0</title>
<polygon fill="#ffffff" stroke="transparent" points="-4,4 -4,-128.8 179,-128.8 179,4 -4,4"/>
<!-- q1 -->
<g id="node1" class="node">
<title>q1</title>
<ellipse fill="none" stroke="#000000" stroke-width="3" cx="27" cy="-18" rx="27" ry="18"/>
<text text-anchor="middle" x="27" y="-13.8" font-family="Times,serif" font-size="14.00" fill="#000000">q1</text>
</g>
<!-- q1&#45;&gt;q1 -->
<g id="edge1" class="edge">
<title>q1&#45;&gt;q1</title>
<path fill="none" stroke="#000000" d="M51.5325,-26.1211C62.5078,-26.8945 72,-24.1875 72,-18 72,-13.8428 67.7151,-11.2567 61.5743,-10.2417"/>
<polygon fill="#000000" stroke="#000000" points="61.6524,-6.7424 51.5325,-9.8789 61.3995,-13.7378 61.6524,-6.7424"/>
<text text-anchor="middle" x="75.1073" y="-13.8" font-family="Times,serif" font-size="14.00" fill="#000000">a</text>
</g>
<!-- q0 -->
<g id="node2" class="node">
<title>q0</title>
<polygon fill="none" stroke="#000000" points="102,-102.7946 96.6523,-118.0228 75,-124.8 53.3477,-118.0228 48,-102.7946 62.9839,-90.5826 87.0161,-90.5826 102,-102.7946"/>
<text text-anchor="middle" x="75" y="-102.6" font-family="Times,serif" font-size="14.00" fill="#000000">q0</text>
</g>
<!-- q0&#45;&gt;q1 -->
<g id="edge3" class="edge">
<title>q0&#45;&gt;q1</title>
<path fill="none" stroke="#000000" d="M66.1961,-90.5127C59.1584,-77.493 49.1591,-58.9944 41.0218,-43.9403"/>
<polygon fill="#000000" stroke="#000000" points="44.0731,-42.2247 36.2389,-35.092 37.9151,-45.5534 44.0731,-42.2247"/>
<text text-anchor="middle" x="59.1073" y="-58.2" font-family="Times,serif" font-size="14.00" fill="#000000">a</text>
</g>
<!-- q0&#45;&gt;q0 -->
<g id="edge2" class="edge">
<title>q0&#45;&gt;q0</title>
<path fill="none" stroke="#000000" d="M98.1534,-114.8063C109.7003,-115.9141 120,-113.2453 120,-106.8 120,-102.1473 114.6328,-99.4626 107.3037,-98.7458"/>
<polygon fill="#000000" stroke="#000000" points="107.1759,-95.2472 97.2272,-98.8904 107.2764,-102.2464 107.1759,-95.2472"/>
<text text-anchor="middle" x="128.3573" y="-102.6" font-family="Times,serif" font-size="14.00" fill="#000000">a,b</text>
</g>
<!-- q2 -->
<g id="node3" class="node">
<title>q2</title>
<ellipse fill="none" stroke="#000000" stroke-width="3" cx="123" cy="-18" rx="27" ry="18"/>
<text text-anchor="middle" x="123" y="-13.8" font-family="Times,serif" font-size="14.00" fill="#000000">q2</text>
</g>
<!-- q0&#45;&gt;q2 -->
<g id="edge4" class="edge">
<title>q0&#45;&gt;q2</title>
<path fill="none" stroke="#000000" d="M83.8039,-90.5127C90.8416,-77.493 100.8409,-58.9944 108.9782,-43.9403"/>
<polygon fill="#000000" stroke="#000000" points="112.0849,-45.5534 113.7611,-35.092 105.9269,-42.2247 112.0849,-45.5534"/>
<text text-anchor="middle" x="106.5" y="-58.2" font-family="Times,serif" font-size="14.00" fill="#000000">b</text>
</g>
<!-- q2&#45;&gt;q2 -->
<g id="edge5" class="edge">
<title>q2&#45;&gt;q2</title>
<path fill="none" stroke="#000000" d="M147.5325,-26.1211C158.5078,-26.8945 168,-24.1875 168,-18 168,-13.8428 163.7151,-11.2567 157.5743,-10.2417"/>
<polygon fill="#000000" stroke="#000000" points="157.6524,-6.7424 147.5325,-9.8789 157.3995,-13.7378 157.6524,-6.7424"/>
<text text-anchor="middle" x="171.5" y="-13.8" font-family="Times,serif" font-size="14.00" fill="#000000">b</text>
</g>
</g>
</svg>
