<svg width="525pt" height="488pt"
 viewBox="0.00 0.00 524.73 488.00" xmlns="http://www.w3.org/2000/svg" xmlns:xlink="http://www.w3.org/1999/xlink">
<g id="graph0" class="graph" transform="scale(1 1) rotate(0) translate(4 484)">
<title>%0</title>
<polygon fill="#ffffff" stroke="transparent" points="-4,4 -4,-484 520.7317,-484 520.7317,4 -4,4"/>
<!-- (&lt;font color=&quot;green&quot;&gt;{q0}&lt;/font&gt;,&lt;font color=&quot;blue&quot;&gt;{q1}&lt;/font&gt;) -->
<g id="node1" class="node">
<title>(&lt;font color=&quot;green&quot;&gt;{q0}&lt;/font&gt;,&lt;font color=&quot;blue&quot;&gt;{q1}&lt;/font&gt;)</title>
<ellipse fill="none" stroke="#000000" cx="57.7317" cy="-284.4" rx="57.9643" ry="18"/>
<text text-anchor="start" x="23.8839" y="-281.2" font-family="Times,serif" font-size="14.00" fill="#000000">(</text>
<text text-anchor="start" x="28.5445" y="-281.2" font-family="Times,serif" font-size="14.00" fill="#00ff00">{q0}</text>
<text text-anchor="start" x="55.9817" y="-281.2" font-family="Times,serif" font-size="14.00" fill="#000000">,</text>
<text text-anchor="start" x="59.4817" y="-281.2" font-family="Times,serif" font-size="14.00" fill="#0000ff">{q1}</text>
<text text-anchor="start" x="86.9189" y="-281.2" font-family="Times,serif" font-size="14.00" fill="#000000">)</text>
</g>
<!-- (&lt;font color=&quot;green&quot;&gt;{q0}&lt;/font&gt;,&lt;font color=&quot;red&quot;&gt;{q1}&lt;/font&gt;) -->
<g id="node2" class="node">
<title>(&lt;font color=&quot;green&quot;&gt;{q0}&lt;/font&gt;,&lt;font color=&quot;red&quot;&gt;{q1}&lt;/font&gt;)</title>
<ellipse fill="none" stroke="#000000" cx="335.7317" cy="-195.6" rx="57.9643" ry="18"/>
<text text-anchor="start" x="301.8839" y="-192.4" font-family="Times,serif" font-size="14.00" fill="#000000">(</text>
<text text-anchor="start" x="306.5445" y="-192.4" font-family="Times,serif" font-size="14.00" fill="#00ff00">{q0}</text>
<text text-anchor="start" x="333.9817" y="-192.4" font-family="Times,serif" font-size="14.00" fill="#000000">,</text>
<text text-anchor="start" x="337.4817" y="-192.4" font-family="Times,serif" font-size="14.00" fill="#ff0000">{q1}</text>
<text text-anchor="start" x="364.9189" y="-192.4" font-family="Times,serif" font-size="14.00" fill="#000000">)</text>
</g>
<!-- (&lt;font color=&quot;green&quot;&gt;{q0}&lt;/font&gt;,&lt;font color=&quot;blue&quot;&gt;{q1}&lt;/font&gt;)&#45;&gt;(&lt;font color=&quot;green&quot;&gt;{q0}&lt;/font&gt;,&lt;font color=&quot;red&quot;&gt;{q1}&lt;/font&gt;) -->
<g id="edge1" class="edge">
<title>(&lt;font color=&quot;green&quot;&gt;{q0}&lt;/font&gt;,&lt;font color=&quot;blue&quot;&gt;{q1}&lt;/font&gt;)&#45;&gt;(&lt;font color=&quot;green&quot;&gt;{q0}&lt;/font&gt;,&lt;font color=&quot;red&quot;&gt;{q1}&lt;/font&gt;)</title>
<path fill="none" stroke="#000000" d="M98.1553,-271.4877C147.7739,-255.6383 231.92,-228.76 285.6049,-211.6117"/>
<polygon fill="#000000" stroke="#000000" points="286.7985,-214.9048 295.2593,-208.5279 284.6685,-208.2367 286.7985,-214.9048"/>
<text text-anchor="middle" x="224.839" y="-235.8" font-family="Times,serif" font-size="14.00" fill="#000000">a</text>
</g>
<!-- (&lt;font color=&quot;green&quot;&gt;{q0}&lt;/font&gt;,&lt;font color=&quot;red&quot;&gt;{q2}&lt;/font&gt;) -->
<g id="node3" class="node">
<title>(&lt;font color=&quot;green&quot;&gt;{q0}&lt;/font&gt;,&lt;font color=&quot;red&quot;&gt;{q2}&lt;/font&gt;)</title>
<ellipse fill="none" stroke="#000000" cx="226.7317" cy="-18" rx="57.9643" ry="18"/>
<text text-anchor="start" x="192.8839" y="-14.8" font-family="Times,serif" font-size="14.00" fill="#000000">(</text>
<text text-anchor="start" x="197.5445" y="-14.8" font-family="Times,serif" font-size="14.00" fill="#00ff00">{q0}</text>
<text text-anchor="start" x="224.9817" y="-14.8" font-family="Times,serif" font-size="14.00" fill="#000000">,</text>
<text text-anchor="start" x="228.4817" y="-14.8" font-family="Times,serif" font-size="14.00" fill="#ff0000">{q2}</text>
<text text-anchor="start" x="255.9189" y="-14.8" font-family="Times,serif" font-size="14.00" fill="#000000">)</text>
</g>
<!-- (&lt;font color=&quot;green&quot;&gt;{q0}&lt;/font&gt;,&lt;font color=&quot;blue&quot;&gt;{q1}&lt;/font&gt;)&#45;&gt;(&lt;font color=&quot;green&quot;&gt;{q0}&lt;/font&gt;,&lt;font color=&quot;red&quot;&gt;{q2}&lt;/font&gt;) -->
<g id="edge2" class="edge">
<title>(&lt;font color=&quot;green&quot;&gt;{q0}&lt;/font&gt;,&lt;font color=&quot;blue&quot;&gt;{q1}&lt;/font&gt;)&#45;&gt;(&lt;font color=&quot;green&quot;&gt;{q0}&lt;/font&gt;,&lt;font color=&quot;red&quot;&gt;{q2}&lt;/font&gt;)</title>
<path fill="none" stroke="#000000" d="M53.3011,-266.2538C43.9618,-223.1589 27.3992,-113.8043 82.7317,-54 93.9527,-41.8721 130.0641,-32.8613 163.3144,-26.8879"/>
<polygon fill="#000000" stroke="#000000" points="164.2502,-30.2784 173.5109,-25.1315 163.0619,-23.38 164.2502,-30.2784"/>
<text text-anchor="middle" x="49.2317" y="-147" font-family="Times,serif" font-size="14.00" fill="#000000">b</text>
</g>
<!-- (&lt;font color=&quot;green&quot;&gt;{q0}&lt;/font&gt;,&lt;font color=&quot;red&quot;&gt;{q1}&lt;/font&gt;)&#45;&gt;(&lt;font color=&quot;green&quot;&gt;{q0}&lt;/font&gt;,&lt;font color=&quot;red&quot;&gt;{q1}&lt;/font&gt;) -->
<g id="edge3" class="edge">
<title>(&lt;font color=&quot;green&quot;&gt;{q0}&lt;/font&gt;,&lt;font color=&quot;red&quot;&gt;{q1}&lt;/font&gt;)&#45;&gt;(&lt;font color=&quot;green&quot;&gt;{q0}&lt;/font&gt;,&lt;font color=&quot;red&quot;&gt;{q1}&lt;/font&gt;)</title>
<path fill="none" stroke="#000000" d="M387.4104,-203.7775C401.0971,-203.3102 411.4634,-200.5844 411.4634,-195.6 411.4634,-191.9396 405.8728,-189.4972 397.4821,-188.2729"/>
<polygon fill="#000000" stroke="#000000" points="397.6695,-184.7764 387.4104,-187.4225 397.0804,-191.7516 397.6695,-184.7764"/>
<text text-anchor="middle" x="414.5707" y="-191.4" font-family="Times,serif" font-size="14.00" fill="#000000">a</text>
</g>
<!-- (&lt;font color=&quot;green&quot;&gt;{q0}&lt;/font&gt;,&lt;font color=&quot;blue&quot;&gt;{q2}&lt;/font&gt;) -->
<g id="node6" class="node">
<title>(&lt;font color=&quot;green&quot;&gt;{q0}&lt;/font&gt;,&lt;font color=&quot;blue&quot;&gt;{q2}&lt;/font&gt;)</title>
<ellipse fill="none" stroke="#000000" cx="312.7317" cy="-106.8" rx="57.9643" ry="18"/>
<text text-anchor="start" x="278.8839" y="-103.6" font-family="Times,serif" font-size="14.00" fill="#000000">(</text>
<text text-anchor="start" x="283.5445" y="-103.6" font-family="Times,serif" font-size="14.00" fill="#00ff00">{q0}</text>
<text text-anchor="start" x="310.9817" y="-103.6" font-family="Times,serif" font-size="14.00" fill="#000000">,</text>
<text text-anchor="start" x="314.4817" y="-103.6" font-family="Times,serif" font-size="14.00" fill="#0000ff">{q2}</text>
<text text-anchor="start" x="341.9189" y="-103.6" font-family="Times,serif" font-size="14.00" fill="#000000">)</text>
</g>
<!-- (&lt;font color=&quot;green&quot;&gt;{q0}&lt;/font&gt;,&lt;font color=&quot;red&quot;&gt;{q1}&lt;/font&gt;)&#45;&gt;(&lt;font color=&quot;green&quot;&gt;{q0}&lt;/font&gt;,&lt;font color=&quot;blue&quot;&gt;{q2}&lt;/font&gt;) -->
<g id="edge4" class="edge">
<title>(&lt;font color=&quot;green&quot;&gt;{q0}&lt;/font&gt;,&lt;font color=&quot;red&quot;&gt;{q1}&lt;/font&gt;)&#45;&gt;(&lt;font color=&quot;green&quot;&gt;{q0}&lt;/font&gt;,&lt;font color=&quot;blue&quot;&gt;{q2}&lt;/font&gt;)</title>
<path fill="none" stroke="#000000" d="M331.0773,-177.63C327.8663,-165.2327 323.5357,-148.513 319.8884,-134.4312"/>
<polygon fill="#000000" stroke="#000000" points="323.2748,-133.5462 317.3792,-124.7433 316.4984,-135.3014 323.2748,-133.5462"/>
<text text-anchor="middle" x="330.2317" y="-147" font-family="Times,serif" font-size="14.00" fill="#000000">b</text>
</g>
<!-- (&lt;font color=&quot;green&quot;&gt;{q0}&lt;/font&gt;,&lt;font color=&quot;red&quot;&gt;{q2}&lt;/font&gt;)&#45;&gt;(&lt;font color=&quot;green&quot;&gt;{q0}&lt;/font&gt;,&lt;font color=&quot;blue&quot;&gt;{q1}&lt;/font&gt;) -->
<g id="edge5" class="edge">
<title>(&lt;font color=&quot;green&quot;&gt;{q0}&lt;/font&gt;,&lt;font color=&quot;red&quot;&gt;{q2}&lt;/font&gt;)&#45;&gt;(&lt;font color=&quot;green&quot;&gt;{q0}&lt;/font&gt;,&lt;font color=&quot;blue&quot;&gt;{q1}&lt;/font&gt;)</title>
<path fill="none" stroke="#000000" d="M176.847,-27.1369C159.9518,-32.4595 142.2192,-40.8392 129.7317,-54 101.6751,-83.5694 74.6833,-201.2397 63.3388,-256.043"/>
<polygon fill="#000000" stroke="#000000" points="59.8525,-255.6229 61.2828,-266.1207 66.7112,-257.0222 59.8525,-255.6229"/>
<text text-anchor="middle" x="93.839" y="-147" font-family="Times,serif" font-size="14.00" fill="#000000">a</text>
</g>
<!-- (&lt;font color=&quot;green&quot;&gt;{q0}&lt;/font&gt;,&lt;font color=&quot;red&quot;&gt;{q2}&lt;/font&gt;)&#45;&gt;(&lt;font color=&quot;green&quot;&gt;{q0}&lt;/font&gt;,&lt;font color=&quot;red&quot;&gt;{q2}&lt;/font&gt;) -->
<g id="edge6" class="edge">
<title>(&lt;font color=&quot;green&quot;&gt;{q0}&lt;/font&gt;,&lt;font color=&quot;red&quot;&gt;{q2}&lt;/font&gt;)&#45;&gt;(&lt;font color=&quot;green&quot;&gt;{q0}&lt;/font&gt;,&lt;font color=&quot;red&quot;&gt;{q2}&lt;/font&gt;)</title>
<path fill="none" stroke="#000000" d="M278.4104,-26.1775C292.0971,-25.7102 302.4634,-22.9844 302.4634,-18 302.4634,-14.3396 296.8728,-11.8972 288.4821,-10.6729"/>
<polygon fill="#000000" stroke="#000000" points="288.6695,-7.1764 278.4104,-9.8225 288.0804,-14.1516 288.6695,-7.1764"/>
<text text-anchor="middle" x="305.9634" y="-13.8" font-family="Times,serif" font-size="14.00" fill="#000000">b</text>
</g>
<!-- ({q0},{q2}) -->
<g id="node4" class="node">
<title>({q0},{q2})</title>
<ellipse fill="none" stroke="#000000" cx="228.7317" cy="-373.2" rx="57.9643" ry="18"/>
<text text-anchor="start" x="194.8839" y="-369" font-family="Times,serif" font-size="14.00" fill="#000000">({q0},{q2})</text>
</g>
<!-- ({q0},{q2})&#45;&gt;(&lt;font color=&quot;green&quot;&gt;{q0}&lt;/font&gt;,&lt;font color=&quot;red&quot;&gt;{q1}&lt;/font&gt;) -->
<g id="edge10" class="edge">
<title>({q0},{q2})&#45;&gt;(&lt;font color=&quot;green&quot;&gt;{q0}&lt;/font&gt;,&lt;font color=&quot;red&quot;&gt;{q1}&lt;/font&gt;)</title>
<path fill="none" stroke="#000000" d="M259.5375,-357.7837C280.3517,-345.6729 306.5354,-326.7847 320.7317,-302.4 334.6382,-278.5131 337.4942,-246.6617 337.4201,-223.974"/>
<polygon fill="#000000" stroke="#000000" points="340.9187,-223.8717 337.1966,-213.9523 333.9205,-224.0279 340.9187,-223.8717"/>
<text text-anchor="middle" x="336.839" y="-280.2" font-family="Times,serif" font-size="14.00" fill="#000000">a</text>
</g>
<!-- ({q0},{q2})&#45;&gt;(&lt;font color=&quot;green&quot;&gt;{q0}&lt;/font&gt;,&lt;font color=&quot;red&quot;&gt;{q2}&lt;/font&gt;) -->
<g id="edge9" class="edge">
<title>({q0},{q2})&#45;&gt;(&lt;font color=&quot;green&quot;&gt;{q0}&lt;/font&gt;,&lt;font color=&quot;red&quot;&gt;{q2}&lt;/font&gt;)</title>
<path fill="none" stroke="#000000" d="M198.5245,-357.4995C174.0931,-342.3933 143.7317,-317.0518 143.7317,-284.4 143.7317,-284.4 143.7317,-284.4 143.7317,-106.8 143.7317,-77.9836 167.348,-54.6429 189.3859,-39.1355"/>
<polygon fill="#000000" stroke="#000000" points="191.3307,-42.0455 197.7023,-33.5806 187.4427,-36.2246 191.3307,-42.0455"/>
<text text-anchor="middle" x="147.2317" y="-191.4" font-family="Times,serif" font-size="14.00" fill="#000000">b</text>
</g>
<!-- ({q0},{q2})&#45;&gt;({q0},{q2}) -->
<g id="edge7" class="edge">
<title>({q0},{q2})&#45;&gt;({q0},{q2})</title>
<path fill="none" stroke="#000000" d="M280.4104,-381.3775C294.0971,-380.9102 304.4634,-378.1844 304.4634,-373.2 304.4634,-369.5396 298.8728,-367.0972 290.4821,-365.8729"/>
<polygon fill="#000000" stroke="#000000" points="290.6695,-362.3764 280.4104,-365.0225 290.0804,-369.3516 290.6695,-362.3764"/>
<text text-anchor="middle" x="307.9634" y="-369" font-family="Times,serif" font-size="14.00" fill="#000000">b</text>
</g>
<!-- ({q0},{q1}) -->
<g id="node5" class="node">
<title>({q0},{q1})</title>
<ellipse fill="none" stroke="#000000" cx="229.7317" cy="-284.4" rx="57.9643" ry="18"/>
<text text-anchor="start" x="195.8839" y="-280.2" font-family="Times,serif" font-size="14.00" fill="#000000">({q0},{q1})</text>
</g>
<!-- ({q0},{q2})&#45;&gt;({q0},{q1}) -->
<g id="edge8" class="edge">
<title>({q0},{q2})&#45;&gt;({q0},{q1})</title>
<path fill="none" stroke="#000000" d="M228.9389,-354.8006C229.0752,-342.6949 229.2564,-326.6076 229.4111,-312.8674"/>
<polygon fill="#000000" stroke="#000000" points="232.9153,-312.5108 229.5282,-302.472 225.9157,-312.4319 232.9153,-312.5108"/>
<text text-anchor="middle" x="232.839" y="-324.6" font-family="Times,serif" font-size="14.00" fill="#000000">a</text>
</g>
<!-- ({q0},{q1})&#45;&gt;(&lt;font color=&quot;green&quot;&gt;{q0}&lt;/font&gt;,&lt;font color=&quot;red&quot;&gt;{q1}&lt;/font&gt;) -->
<g id="edge13" class="edge">
<title>({q0},{q1})&#45;&gt;(&lt;font color=&quot;green&quot;&gt;{q0}&lt;/font&gt;,&lt;font color=&quot;red&quot;&gt;{q1}&lt;/font&gt;)</title>
<path fill="none" stroke="#000000" d="M250.1696,-267.2785C266.4468,-253.6424 289.4143,-234.4018 307.4556,-219.2879"/>
<polygon fill="#000000" stroke="#000000" points="309.9386,-221.7737 315.3566,-212.669 305.4433,-216.4078 309.9386,-221.7737"/>
<text text-anchor="middle" x="295.839" y="-235.8" font-family="Times,serif" font-size="14.00" fill="#000000">a</text>
</g>
<!-- ({q0},{q1})&#45;&gt;(&lt;font color=&quot;green&quot;&gt;{q0}&lt;/font&gt;,&lt;font color=&quot;red&quot;&gt;{q2}&lt;/font&gt;) -->
<g id="edge14" class="edge">
<title>({q0},{q1})&#45;&gt;(&lt;font color=&quot;green&quot;&gt;{q0}&lt;/font&gt;,&lt;font color=&quot;red&quot;&gt;{q2}&lt;/font&gt;)</title>
<path fill="none" stroke="#000000" d="M229.5255,-266.0892C229.0105,-220.3536 227.6649,-100.8719 227.0485,-46.1306"/>
<polygon fill="#000000" stroke="#000000" points="230.5479,-46.0465 226.9354,-36.0866 223.5483,-46.1254 230.5479,-46.0465"/>
<text text-anchor="middle" x="232.2317" y="-147" font-family="Times,serif" font-size="14.00" fill="#000000">b</text>
</g>
<!-- ({q0},{q1})&#45;&gt;({q0},{q2}) -->
<g id="edge12" class="edge">
<title>({q0},{q1})&#45;&gt;({q0},{q2})</title>
<path fill="none" stroke="#000000" d="M223.0661,-302.4722C221.2904,-308.1317 219.6199,-314.4535 218.7317,-320.4 217.5242,-328.4839 218.3144,-337.2186 219.8763,-345.2119"/>
<polygon fill="#000000" stroke="#000000" points="216.531,-346.2705 222.271,-355.1757 223.3371,-344.6346 216.531,-346.2705"/>
<text text-anchor="middle" x="222.2317" y="-324.6" font-family="Times,serif" font-size="14.00" fill="#000000">b</text>
</g>
<!-- ({q0},{q1})&#45;&gt;({q0},{q1}) -->
<g id="edge11" class="edge">
<title>({q0},{q1})&#45;&gt;({q0},{q1})</title>
<path fill="none" stroke="#000000" d="M281.4104,-292.5775C295.0971,-292.1102 305.4634,-289.3844 305.4634,-284.4 305.4634,-280.7396 299.8728,-278.2972 291.4821,-277.0729"/>
<polygon fill="#000000" stroke="#000000" points="291.6695,-273.5764 281.4104,-276.2225 291.0804,-280.5516 291.6695,-273.5764"/>
<text text-anchor="middle" x="308.5707" y="-280.2" font-family="Times,serif" font-size="14.00" fill="#000000">a</text>
</g>
<!-- (&lt;font color=&quot;green&quot;&gt;{q0}&lt;/font&gt;,&lt;font color=&quot;blue&quot;&gt;{q2}&lt;/font&gt;)&#45;&gt;(&lt;font color=&quot;green&quot;&gt;{q0}&lt;/font&gt;,&lt;font color=&quot;red&quot;&gt;{q1}&lt;/font&gt;) -->
<g id="edge15" class="edge">
<title>(&lt;font color=&quot;green&quot;&gt;{q0}&lt;/font&gt;,&lt;font color=&quot;blue&quot;&gt;{q2}&lt;/font&gt;)&#45;&gt;(&lt;font color=&quot;green&quot;&gt;{q0}&lt;/font&gt;,&lt;font color=&quot;red&quot;&gt;{q1}&lt;/font&gt;)</title>
<path fill="none" stroke="#000000" d="M310.0979,-125.2472C309.2555,-135.5564 309.2545,-148.5203 312.5171,-159.6 313.4624,-162.8103 314.7927,-166.0043 316.3434,-169.0886"/>
<polygon fill="#000000" stroke="#000000" points="313.4315,-171.0431 321.4923,-177.9188 319.4786,-167.5171 313.4315,-171.0431"/>
<text text-anchor="middle" x="315.839" y="-147" font-family="Times,serif" font-size="14.00" fill="#000000">a</text>
</g>
<!-- (&lt;font color=&quot;green&quot;&gt;{q0}&lt;/font&gt;,&lt;font color=&quot;blue&quot;&gt;{q2}&lt;/font&gt;)&#45;&gt;(&lt;font color=&quot;green&quot;&gt;{q0}&lt;/font&gt;,&lt;font color=&quot;red&quot;&gt;{q2}&lt;/font&gt;) -->
<g id="edge16" class="edge">
<title>(&lt;font color=&quot;green&quot;&gt;{q0}&lt;/font&gt;,&lt;font color=&quot;blue&quot;&gt;{q2}&lt;/font&gt;)&#45;&gt;(&lt;font color=&quot;green&quot;&gt;{q0}&lt;/font&gt;,&lt;font color=&quot;red&quot;&gt;{q2}&lt;/font&gt;)</title>
<path fill="none" stroke="#000000" d="M295.7409,-89.256C282.9019,-75.999 265.1076,-57.6254 250.8041,-42.8562"/>
<polygon fill="#000000" stroke="#000000" points="253.1584,-40.2561 243.6872,-35.5076 248.13,-45.1259 253.1584,-40.2561"/>
<text text-anchor="middle" x="281.2317" y="-58.2" font-family="Times,serif" font-size="14.00" fill="#000000">b</text>
</g>
<!-- ({q0}) -->
<g id="node7" class="node">
<title>({q0})</title>
<polygon fill="none" stroke="#000000" points="405.0156,-457.9946 397.0369,-473.2228 364.7317,-480 332.4265,-473.2228 324.4477,-457.9946 346.8037,-445.7826 382.6597,-445.7826 405.0156,-457.9946"/>
<text text-anchor="start" x="346.3525" y="-457.8" font-family="Times,serif" font-size="14.00" fill="#000000">({q0})</text>
</g>
<!-- ({q0})&#45;&gt;(&lt;font color=&quot;green&quot;&gt;{q0}&lt;/font&gt;,&lt;font color=&quot;red&quot;&gt;{q1}&lt;/font&gt;) -->
<g id="edge19" class="edge">
<title>({q0})&#45;&gt;(&lt;font color=&quot;green&quot;&gt;{q0}&lt;/font&gt;,&lt;font color=&quot;red&quot;&gt;{q1}&lt;/font&gt;)</title>
<path fill="none" stroke="#000000" d="M366.0438,-445.3523C366.694,-434.9578 367.2417,-421.2979 366.7317,-409.2 363.3954,-330.0559 371.4249,-308.3274 351.7317,-231.6 350.9984,-228.7431 350.0582,-225.8271 349.0014,-222.953"/>
<polygon fill="#000000" stroke="#000000" points="352.145,-221.3955 345.0917,-213.4896 345.6754,-224.0684 352.145,-221.3955"/>
<text text-anchor="middle" x="368.839" y="-324.6" font-family="Times,serif" font-size="14.00" fill="#000000">a</text>
</g>
<!-- ({q0})&#45;&gt;(&lt;font color=&quot;green&quot;&gt;{q0}&lt;/font&gt;,&lt;font color=&quot;red&quot;&gt;{q2}&lt;/font&gt;) -->
<g id="edge20" class="edge">
<title>({q0})&#45;&gt;(&lt;font color=&quot;green&quot;&gt;{q0}&lt;/font&gt;,&lt;font color=&quot;red&quot;&gt;{q2}&lt;/font&gt;)</title>
<path fill="none" stroke="#000000" d="M401.6965,-455.9094C444.6564,-446.4737 509.7317,-423.8255 509.7317,-373.2 509.7317,-373.2 509.7317,-373.2 509.7317,-106.8 509.7317,-61.2762 374.7321,-36.2763 291.2143,-25.1659"/>
<polygon fill="#000000" stroke="#000000" points="291.6641,-21.695 281.2969,-23.8794 290.7636,-28.6368 291.6641,-21.695"/>
<text text-anchor="middle" x="513.2317" y="-235.8" font-family="Times,serif" font-size="14.00" fill="#000000">b</text>
</g>
<!-- ({q0})&#45;&gt;({q0},{q2}) -->
<g id="edge18" class="edge">
<title>({q0})&#45;&gt;({q0},{q2})</title>
<path fill="none" stroke="#000000" d="M342.8809,-447.7327C321.1189,-433.5234 287.417,-411.5181 262.2663,-395.0961"/>
<polygon fill="#000000" stroke="#000000" points="264.0471,-392.0789 253.7603,-389.5422 260.22,-397.9401 264.0471,-392.0789"/>
<text text-anchor="middle" x="313.2317" y="-413.4" font-family="Times,serif" font-size="14.00" fill="#000000">b</text>
</g>
<!-- ({q0})&#45;&gt;({q0},{q1}) -->
<g id="edge17" class="edge">
<title>({q0})&#45;&gt;({q0},{q1})</title>
<path fill="none" stroke="#000000" d="M360.786,-445.4599C354.8818,-423.2378 342.0969,-383.293 320.7317,-355.2 305.7731,-335.5311 284.0802,-318.368 265.6263,-305.8678"/>
<polygon fill="#000000" stroke="#000000" points="267.4203,-302.8586 257.142,-300.2882 263.574,-308.7072 267.4203,-302.8586"/>
<text text-anchor="middle" x="344.839" y="-369" font-family="Times,serif" font-size="14.00" fill="#000000">a</text>
</g>
<!-- (&lt;font color=&quot;green&quot;&gt;{q0}&lt;/font&gt;) -->
<g id="node8" class="node">
<title>(&lt;font color=&quot;green&quot;&gt;{q0}&lt;/font&gt;)</title>
<ellipse fill="none" stroke="#000000" stroke-width="3" cx="445.7317" cy="-284.4" rx="36.2839" ry="18"/>
<text text-anchor="start" x="427.3525" y="-281.2" font-family="Times,serif" font-size="14.00" fill="#000000">(</text>
<text text-anchor="start" x="432.0131" y="-281.2" font-family="Times,serif" font-size="14.00" fill="#00ff00">{q0}</text>
<text text-anchor="start" x="459.4503" y="-281.2" font-family="Times,serif" font-size="14.00" fill="#000000">)</text>
</g>
<!-- (&lt;font color=&quot;green&quot;&gt;{q0}&lt;/font&gt;)&#45;&gt;(&lt;font color=&quot;green&quot;&gt;{q0}&lt;/font&gt;,&lt;font color=&quot;red&quot;&gt;{q1}&lt;/font&gt;) -->
<g id="edge21" class="edge">
<title>(&lt;font color=&quot;green&quot;&gt;{q0}&lt;/font&gt;)&#45;&gt;(&lt;font color=&quot;green&quot;&gt;{q0}&lt;/font&gt;,&lt;font color=&quot;red&quot;&gt;{q1}&lt;/font&gt;)</title>
<path fill="none" stroke="#000000" d="M431.8974,-267.5577C422.3942,-256.5793 409.1196,-242.3495 395.7317,-231.6 388.9916,-226.1882 381.3628,-221.0035 373.8602,-216.3378"/>
<polygon fill="#000000" stroke="#000000" points="375.5457,-213.2674 365.1715,-211.1166 371.9402,-219.2674 375.5457,-213.2674"/>
<text text-anchor="middle" x="415.839" y="-235.8" font-family="Times,serif" font-size="14.00" fill="#000000">a</text>
</g>
<!-- (&lt;font color=&quot;green&quot;&gt;{q0}&lt;/font&gt;)&#45;&gt;(&lt;font color=&quot;green&quot;&gt;{q0}&lt;/font&gt;,&lt;font color=&quot;red&quot;&gt;{q2}&lt;/font&gt;) -->
<g id="edge22" class="edge">
<title>(&lt;font color=&quot;green&quot;&gt;{q0}&lt;/font&gt;)&#45;&gt;(&lt;font color=&quot;green&quot;&gt;{q0}&lt;/font&gt;,&lt;font color=&quot;red&quot;&gt;{q2}&lt;/font&gt;)</title>
<path fill="none" stroke="#000000" d="M445.0338,-266.3467C442.5489,-227.9308 431.2309,-137.6204 379.7317,-88.8 351.7233,-62.2485 311.9764,-44.2656 280.0142,-33.0686"/>
<polygon fill="#000000" stroke="#000000" points="280.9607,-29.694 270.3664,-29.8095 278.7203,-36.3259 280.9607,-29.694"/>
<text text-anchor="middle" x="426.2317" y="-147" font-family="Times,serif" font-size="14.00" fill="#000000">b</text>
</g>
</g>
</svg>
