<svg width="111pt" height="133pt"
 viewBox="0.00 0.00 111.00 132.80" xmlns="http://www.w3.org/2000/svg" xmlns:xlink="http://www.w3.org/1999/xlink">
<g id="graph0" class="graph" transform="scale(1 1) rotate(0) translate(4 128.8)">
<title>%0</title>
<polygon fill="#ffffff" stroke="transparent" points="-4,4 -4,-128.8 107,-128.8 107,4 -4,4"/>
<!-- q0 -->
<g id="node1" class="node">
<title>q0</title>
<ellipse fill="none" stroke="#000000" cx="27" cy="-106.8" rx="27" ry="18"/>
<text text-anchor="middle" x="27" y="-102.6" font-family="Times,serif" font-size="14.00" fill="#000000">q0</text>
</g>
<!-- q0&#45;&gt;q0 -->
<g id="edge1" class="edge">
<title>q0&#45;&gt;q0</title>
<path fill="none" stroke="#000000" d="M53.3466,-110.9089C63.5332,-111.0915 72,-109.7219 72,-106.8 72,-104.9282 68.5252,-103.6934 63.3495,-103.0956"/>
<polygon fill="#000000" stroke="#000000" points="63.4799,-99.5982 53.3466,-102.6911 63.197,-106.5924 63.4799,-99.5982"/>
<text text-anchor="middle" x="75.1073" y="-102.6" font-family="Times,serif" font-size="14.00" fill="#000000">a</text>
</g>
<!-- q0&#45;&gt;q0 -->
<g id="edge2" class="edge">
<title>q0&#45;&gt;q0</title>
<path fill="none" stroke="#000000" d="M51.9011,-114.0303C70.8194,-116.6437 90,-114.2336 90,-106.8 90,-100.7021 77.0932,-97.9846 62.0119,-98.6475"/>
<polygon fill="#000000" stroke="#000000" points="61.5418,-95.1757 51.9011,-99.5697 62.1777,-102.1468 61.5418,-95.1757"/>
<text text-anchor="middle" x="93.5" y="-102.6" font-family="Times,serif" font-size="14.00" fill="#000000">b</text>
</g>
<!-- q1 -->
<g id="node2" class="node">
<title>q1</title>
<ellipse fill="none" stroke="#000000" cx="27" cy="-18" rx="27" ry="18"/>
<text text-anchor="middle" x="27" y="-13.8" font-family="Times,serif" font-size="14.00" fill="#000000">q1</text>
</g>
<!-- q0&#45;&gt;q1 -->
<g id="edge3" class="edge">
<title>q0&#45;&gt;q1</title>
<path fill="none" stroke="#000000" d="M27,-88.4006C27,-76.2949 27,-60.2076 27,-46.4674"/>
<polygon fill="#000000" stroke="#000000" points="30.5001,-46.072 27,-36.072 23.5001,-46.0721 30.5001,-46.072"/>
<text text-anchor="middle" x="30.5" y="-58.2" font-family="Times,serif" font-size="14.00" fill="#000000">b</text>
</g>
<!-- q1&#45;&gt;q1 -->
<g id="edge4" class="edge">
<title>q1&#45;&gt;q1</title>
<path fill="none" stroke="#000000" d="M51.5325,-26.1211C62.5078,-26.8945 72,-24.1875 72,-18 72,-13.8428 67.7151,-11.2567 61.5743,-10.2417"/>
<polygon fill="#000000" stroke="#000000" points="61.6524,-6.7424 51.5325,-9.8789 61.3995,-13.7378 61.6524,-6.7424"/>
<text text-anchor="middle" x="75.5" y="-13.8" font-family="Times,serif" font-size="14.00" fill="#000000">b</text>
</g>
</g>
</svg>
