<svg width="111pt" height="222pt"
 viewBox="0.00 0.00 111.00 221.60" xmlns="http://www.w3.org/2000/svg" xmlns:xlink="http://www.w3.org/1999/xlink">
<g id="graph0" class="graph" transform="scale(1 1) rotate(0) translate(4 217.6)">
<title>%0</title>
<polygon fill="#ffffff" stroke="transparent" points="-4,4 -4,-217.6 107,-217.6 107,4 -4,4"/>
<!-- q2 -->
<g id="node1" class="node">
<title>q2</title>
<ellipse fill="none" stroke="#000000" cx="27" cy="-18" rx="27" ry="18"/>
<text text-anchor="middle" x="27" y="-13.8" font-family="Times,serif" font-size="14.00" fill="#000000">q2</text>
</g>
<!-- q2&#45;&gt;q2 -->
<g id="edge1" class="edge">
<title>q2&#45;&gt;q2</title>
<path fill="none" stroke="#000000" d="M53.3466,-22.1089C63.5332,-22.2915 72,-20.9219 72,-18 72,-16.1282 68.5252,-14.8934 63.3495,-14.2956"/>
<polygon fill="#000000" stroke="#000000" points="63.4799,-10.7982 53.3466,-13.8911 63.197,-17.7924 63.4799,-10.7982"/>
<text text-anchor="middle" x="75.1073" y="-13.8" font-family="Times,serif" font-size="14.00" fill="#000000">a</text>
</g>
<!-- q2&#45;&gt;q2 -->
<g id="edge2" class="edge">
<title>q2&#45;&gt;q2</title>
<path fill="none" stroke="#000000" d="M51.9011,-25.2303C70.8194,-27.8437 90,-25.4336 90,-18 90,-11.9021 77.0932,-9.1846 62.0119,-9.8475"/>
<polygon fill="#000000" stroke="#000000" points="61.5418,-6.3757 51.9011,-10.7697 62.1777,-13.3468 61.5418,-6.3757"/>
<text text-anchor="middle" x="93.1073" y="-13.8" font-family="Times,serif" font-size="14.00" fill="#000000">a</text>
</g>
<!-- q1 -->
<g id="node2" class="node">
<title>q1</title>
<ellipse fill="none" stroke="#000000" cx="27" cy="-106.8" rx="27" ry="18"/>
<text text-anchor="middle" x="27" y="-102.6" font-family="Times,serif" font-size="14.00" fill="#000000">q1</text>
</g>
<!-- q1&#45;&gt;q2 -->
<g id="edge4" class="edge">
<title>q1&#45;&gt;q2</title>
<path fill="none" stroke="#000000" d="M27,-88.4006C27,-76.2949 27,-60.2076 27,-46.4674"/>
<polygon fill="#000000" stroke="#000000" points="30.5001,-46.072 27,-36.072 23.5001,-46.0721 30.5001,-46.072"/>
<text text-anchor="middle" x="30.1073" y="-58.2" font-family="Times,serif" font-size="14.00" fill="#000000">a</text>
</g>
<!-- q1&#45;&gt;q1 -->
<g id="edge3" class="edge">
<title>q1&#45;&gt;q1</title>
<path fill="none" stroke="#000000" d="M51.5325,-114.9211C62.5078,-115.6945 72,-112.9875 72,-106.8 72,-102.6428 67.7151,-100.0567 61.5743,-99.0417"/>
<polygon fill="#000000" stroke="#000000" points="61.6524,-95.5424 51.5325,-98.6789 61.3995,-102.5378 61.6524,-95.5424"/>
<text text-anchor="middle" x="75.5" y="-102.6" font-family="Times,serif" font-size="14.00" fill="#000000">b</text>
</g>
<!-- q0 -->
<g id="node3" class="node">
<title>q0</title>
<ellipse fill="none" stroke="#000000" cx="27" cy="-195.6" rx="27" ry="18"/>
<text text-anchor="middle" x="27" y="-191.4" font-family="Times,serif" font-size="14.00" fill="#000000">q0</text>
</g>
<!-- q0&#45;&gt;q1 -->
<g id="edge7" class="edge">
<title>q0&#45;&gt;q1</title>
<path fill="none" stroke="#000000" d="M27,-177.2006C27,-165.0949 27,-149.0076 27,-135.2674"/>
<polygon fill="#000000" stroke="#000000" points="30.5001,-134.872 27,-124.872 23.5001,-134.8721 30.5001,-134.872"/>
<text text-anchor="middle" x="30.1073" y="-147" font-family="Times,serif" font-size="14.00" fill="#000000">a</text>
</g>
<!-- q0&#45;&gt;q0 -->
<g id="edge5" class="edge">
<title>q0&#45;&gt;q0</title>
<path fill="none" stroke="#000000" d="M53.3466,-199.7089C63.5332,-199.8915 72,-198.5219 72,-195.6 72,-193.7282 68.5252,-192.4934 63.3495,-191.8956"/>
<polygon fill="#000000" stroke="#000000" points="63.4799,-188.3982 53.3466,-191.4911 63.197,-195.3924 63.4799,-188.3982"/>
<text text-anchor="middle" x="75.1073" y="-191.4" font-family="Times,serif" font-size="14.00" fill="#000000">a</text>
</g>
<!-- q0&#45;&gt;q0 -->
<g id="edge6" class="edge">
<title>q0&#45;&gt;q0</title>
<path fill="none" stroke="#000000" d="M51.9011,-202.8303C70.8194,-205.4437 90,-203.0336 90,-195.6 90,-189.5021 77.0932,-186.7846 62.0119,-187.4475"/>
<polygon fill="#000000" stroke="#000000" points="61.5418,-183.9757 51.9011,-188.3697 62.1777,-190.9468 61.5418,-183.9757"/>
<text text-anchor="middle" x="93.5" y="-191.4" font-family="Times,serif" font-size="14.00" fill="#000000">b</text>
</g>
</g>
</svg>
