<svg width="97pt" height="310pt"
 viewBox="0.00 0.00 96.71 310.40" xmlns="http://www.w3.org/2000/svg" xmlns:xlink="http://www.w3.org/1999/xlink">
<g id="graph0" class="graph" transform="scale(1 1) rotate(0) translate(4 306.4)">
<title>%0</title>
<polygon fill="#ffffff" stroke="transparent" points="-4,4 -4,-306.4 92.7146,-306.4 92.7146,4 -4,4"/>
<!-- q1 -->
<g id="node1" class="node">
<title>q1</title>
<ellipse fill="none" stroke="#000000" stroke-width="3" cx="27" cy="-195.6" rx="27" ry="18"/>
<text text-anchor="middle" x="27" y="-191.4" font-family="Times,serif" font-size="14.00" fill="#000000">q1</text>
</g>
<!-- q1&#45;&gt;q1 -->
<g id="edge1" class="edge">
<title>q1&#45;&gt;q1</title>
<path fill="none" stroke="#000000" d="M51.5325,-203.7211C62.5078,-204.4945 72,-201.7875 72,-195.6 72,-191.4428 67.7151,-188.8567 61.5743,-187.8417"/>
<polygon fill="#000000" stroke="#000000" points="61.6524,-184.3424 51.5325,-187.4789 61.3995,-191.3378 61.6524,-184.3424"/>
<text text-anchor="middle" x="75.5" y="-191.4" font-family="Times,serif" font-size="14.00" fill="#000000">b</text>
</g>
<!-- q2 -->
<g id="node4" class="node">
<title>q2</title>
<ellipse fill="none" stroke="#000000" cx="27" cy="-106.8" rx="27" ry="18"/>
<text text-anchor="middle" x="27" y="-102.6" font-family="Times,serif" font-size="14.00" fill="#000000">q2</text>
</g>
<!-- q1&#45;&gt;q2 -->
<g id="edge2" class="edge">
<title>q1&#45;&gt;q2</title>
<path fill="none" stroke="#000000" d="M27,-177.2006C27,-165.0949 27,-149.0076 27,-135.2674"/>
<polygon fill="#000000" stroke="#000000" points="30.5001,-134.872 27,-124.872 23.5001,-134.8721 30.5001,-134.872"/>
<text text-anchor="middle" x="30.1073" y="-147" font-family="Times,serif" font-size="14.00" fill="#000000">a</text>
</g>
<!-- q3 -->
<g id="node2" class="node">
<title>q3</title>
<ellipse fill="none" stroke="#000000" stroke-width="3" cx="27" cy="-18" rx="27" ry="18"/>
<text text-anchor="middle" x="27" y="-13.8" font-family="Times,serif" font-size="14.00" fill="#000000">q3</text>
</g>
<!-- q3&#45;&gt;q3 -->
<g id="edge5" class="edge">
<title>q3&#45;&gt;q3</title>
<path fill="none" stroke="#000000" d="M51.5325,-26.1211C62.5078,-26.8945 72,-24.1875 72,-18 72,-13.8428 67.7151,-11.2567 61.5743,-10.2417"/>
<polygon fill="#000000" stroke="#000000" points="61.6524,-6.7424 51.5325,-9.8789 61.3995,-13.7378 61.6524,-6.7424"/>
<text text-anchor="middle" x="80.3573" y="-13.8" font-family="Times,serif" font-size="14.00" fill="#000000">b,a</text>
</g>
<!-- q0 -->
<g id="node3" class="node">
<title>q0</title>
<polygon fill="none" stroke="#000000" points="54,-280.3946 48.6523,-295.6228 27,-302.4 5.3477,-295.6228 0,-280.3946 14.9839,-268.1826 39.0161,-268.1826 54,-280.3946"/>
<text text-anchor="middle" x="27" y="-280.2" font-family="Times,serif" font-size="14.00" fill="#000000">q0</text>
</g>
<!-- q0&#45;&gt;q1 -->
<g id="edge7" class="edge">
<title>q0&#45;&gt;q1</title>
<path fill="none" stroke="#000000" d="M27,-268.1127C27,-255.7032 27,-238.3164 27,-223.6788"/>
<polygon fill="#000000" stroke="#000000" points="30.5001,-223.6168 27,-213.6168 23.5001,-223.6168 30.5001,-223.6168"/>
<text text-anchor="middle" x="30.1073" y="-235.8" font-family="Times,serif" font-size="14.00" fill="#000000">a</text>
</g>
<!-- q0&#45;&gt;q0 -->
<g id="edge6" class="edge">
<title>q0&#45;&gt;q0</title>
<path fill="none" stroke="#000000" d="M50.1534,-292.4063C61.7003,-293.5141 72,-290.8453 72,-284.4 72,-279.7473 66.6328,-277.0626 59.3037,-276.3458"/>
<polygon fill="#000000" stroke="#000000" points="59.1759,-272.8472 49.2272,-276.4904 59.2764,-279.8464 59.1759,-272.8472"/>
<text text-anchor="middle" x="75.5" y="-280.2" font-family="Times,serif" font-size="14.00" fill="#000000">b</text>
</g>
<!-- q2&#45;&gt;q3 -->
<g id="edge4" class="edge">
<title>q2&#45;&gt;q3</title>
<path fill="none" stroke="#000000" d="M27,-88.4006C27,-76.2949 27,-60.2076 27,-46.4674"/>
<polygon fill="#000000" stroke="#000000" points="30.5001,-46.072 27,-36.072 23.5001,-46.0721 30.5001,-46.072"/>
<text text-anchor="middle" x="30.1073" y="-58.2" font-family="Times,serif" font-size="14.00" fill="#000000">a</text>
</g>
<!-- q2&#45;&gt;q2 -->
<g id="edge3" class="edge">
<title>q2&#45;&gt;q2</title>
<path fill="none" stroke="#000000" d="M51.5325,-114.9211C62.5078,-115.6945 72,-112.9875 72,-106.8 72,-102.6428 67.7151,-100.0567 61.5743,-99.0417"/>
<polygon fill="#000000" stroke="#000000" points="61.6524,-95.5424 51.5325,-98.6789 61.3995,-102.5378 61.6524,-95.5424"/>
<text text-anchor="middle" x="75.5" y="-102.6" font-family="Times,serif" font-size="14.00" fill="#000000">b</text>
</g>
</g>
</svg>
