<svg width="314pt" height="310pt"
 viewBox="0.00 0.00 314.32 310.40" xmlns="http://www.w3.org/2000/svg" xmlns:xlink="http://www.w3.org/1999/xlink">
<g id="graph0" class="graph" transform="scale(1 1) rotate(0) translate(4 306.4)">
<title>%0</title>
<polygon fill="#ffffff" stroke="transparent" points="-4,4 -4,-306.4 310.3231,-306.4 310.3231,4 -4,4"/>
<!-- q2_new -->
<g id="node1" class="node">
<title>q2_new</title>
<ellipse fill="none" stroke="#000000" stroke-width="3" cx="132.6085" cy="-18" rx="41.7172" ry="18"/>
<text text-anchor="middle" x="132.6085" y="-13.8" font-family="Times,serif" font-size="14.00" fill="#000000">q2_new</text>
</g>
<!-- q2_new&#45;&gt;q2_new -->
<g id="edge5" class="edge">
<title>q2_new&#45;&gt;q2_new</title>
<path fill="none" stroke="#000000" d="M169.8638,-26.25C182.2822,-26.25 192.2169,-23.5 192.2169,-18 192.2169,-14.1328 187.3053,-11.6252 180.0723,-10.4771"/>
<polygon fill="#000000" stroke="#000000" points="180.0872,-6.9694 169.8638,-9.75 179.5898,-13.9517 180.0872,-6.9694"/>
<text text-anchor="middle" x="195.7169" y="-13.8" font-family="Times,serif" font-size="14.00" fill="#000000">b</text>
</g>
<!-- q0 -->
<g id="node2" class="node">
<title>q0</title>
<polygon fill="none" stroke="#000000" points="124.6085,-280.3946 119.2608,-295.6228 97.6085,-302.4 75.9561,-295.6228 70.6085,-280.3946 85.5923,-268.1826 109.6246,-268.1826 124.6085,-280.3946"/>
<text text-anchor="middle" x="97.6085" y="-280.2" font-family="Times,serif" font-size="14.00" fill="#000000">q0</text>
</g>
<!-- q0&#45;&gt;q0 -->
<g id="edge6" class="edge">
<title>q0&#45;&gt;q0</title>
<path fill="none" stroke="#000000" d="M120.7619,-292.4063C132.3088,-293.5141 142.6085,-290.8453 142.6085,-284.4 142.6085,-279.7473 137.2413,-277.0626 129.9121,-276.3458"/>
<polygon fill="#000000" stroke="#000000" points="129.7843,-272.8472 119.8356,-276.4904 129.8849,-279.8464 129.7843,-272.8472"/>
<text text-anchor="middle" x="146.1085" y="-280.2" font-family="Times,serif" font-size="14.00" fill="#000000">b</text>
</g>
<!-- q0_new -->
<g id="node3" class="node">
<title>q0_new</title>
<ellipse fill="none" stroke="#000000" stroke-width="3" cx="41.6085" cy="-195.6" rx="41.7172" ry="18"/>
<text text-anchor="middle" x="41.6085" y="-191.4" font-family="Times,serif" font-size="14.00" fill="#000000">q0_new</text>
</g>
<!-- q0&#45;&gt;q0_new -->
<g id="edge7" class="edge">
<title>q0&#45;&gt;q0_new</title>
<path fill="none" stroke="#000000" d="M87.3372,-268.1127C79.1788,-255.1759 67.6092,-236.8298 58.1489,-221.8284"/>
<polygon fill="#000000" stroke="#000000" points="60.8751,-219.5899 52.5804,-212.9984 54.9542,-223.3239 60.8751,-219.5899"/>
<text text-anchor="middle" x="78.1085" y="-235.8" font-family="Times,serif" font-size="14.00" fill="#000000">b</text>
</g>
<!-- q1 -->
<g id="node6" class="node">
<title>q1</title>
<ellipse fill="none" stroke="#000000" cx="153.6085" cy="-195.6" rx="27" ry="18"/>
<text text-anchor="middle" x="153.6085" y="-191.4" font-family="Times,serif" font-size="14.00" fill="#000000">q1</text>
</g>
<!-- q0&#45;&gt;q1 -->
<g id="edge8" class="edge">
<title>q0&#45;&gt;q1</title>
<path fill="none" stroke="#000000" d="M107.8797,-268.1127C116.1427,-255.01 127.9049,-236.3585 137.4308,-221.2531"/>
<polygon fill="#000000" stroke="#000000" points="140.6481,-222.7129 143.0218,-212.3874 134.7271,-218.9789 140.6481,-222.7129"/>
<text text-anchor="middle" x="133.7158" y="-235.8" font-family="Times,serif" font-size="14.00" fill="#000000">a</text>
</g>
<!-- q0_new&#45;&gt;q0_new -->
<g id="edge9" class="edge">
<title>q0_new&#45;&gt;q0_new</title>
<path fill="none" stroke="#000000" d="M78.8638,-203.85C91.2822,-203.85 101.2169,-201.1 101.2169,-195.6 101.2169,-191.7328 96.3053,-189.2252 89.0723,-188.0771"/>
<polygon fill="#000000" stroke="#000000" points="89.0872,-184.5694 78.8638,-187.35 88.5898,-191.5517 89.0872,-184.5694"/>
<text text-anchor="middle" x="104.7169" y="-191.4" font-family="Times,serif" font-size="14.00" fill="#000000">b</text>
</g>
<!-- q2 -->
<g id="node4" class="node">
<title>q2</title>
<ellipse fill="none" stroke="#000000" cx="183.6085" cy="-106.8" rx="27" ry="18"/>
<text text-anchor="middle" x="183.6085" y="-102.6" font-family="Times,serif" font-size="14.00" fill="#000000">q2</text>
</g>
<!-- q2&#45;&gt;q2_new -->
<g id="edge3" class="edge">
<title>q2&#45;&gt;q2_new</title>
<path fill="none" stroke="#000000" d="M173.7752,-89.6785C166.4619,-76.9449 156.3418,-59.324 147.9659,-44.7401"/>
<polygon fill="#000000" stroke="#000000" points="150.7761,-42.6053 142.7607,-35.6768 144.706,-46.0915 150.7761,-42.6053"/>
<text text-anchor="middle" x="166.1085" y="-58.2" font-family="Times,serif" font-size="14.00" fill="#000000">b</text>
</g>
<!-- q2&#45;&gt;q2 -->
<g id="edge2" class="edge">
<title>q2&#45;&gt;q2</title>
<path fill="none" stroke="#000000" d="M208.1409,-114.9211C219.1163,-115.6945 228.6085,-112.9875 228.6085,-106.8 228.6085,-102.6428 224.3235,-100.0567 218.1828,-99.0417"/>
<polygon fill="#000000" stroke="#000000" points="218.2608,-95.5424 208.1409,-98.6789 218.008,-102.5378 218.2608,-95.5424"/>
<text text-anchor="middle" x="232.1085" y="-102.6" font-family="Times,serif" font-size="14.00" fill="#000000">b</text>
</g>
<!-- q3 -->
<g id="node5" class="node">
<title>q3</title>
<ellipse fill="none" stroke="#000000" cx="244.6085" cy="-18" rx="27" ry="18"/>
<text text-anchor="middle" x="244.6085" y="-13.8" font-family="Times,serif" font-size="14.00" fill="#000000">q3</text>
</g>
<!-- q2&#45;&gt;q3 -->
<g id="edge1" class="edge">
<title>q2&#45;&gt;q3</title>
<path fill="none" stroke="#000000" d="M195.0821,-90.0974C204.1987,-76.826 217.0914,-58.0577 227.437,-42.9971"/>
<polygon fill="#000000" stroke="#000000" points="230.409,-44.8521 233.1863,-34.6277 224.6392,-40.8885 230.409,-44.8521"/>
<text text-anchor="middle" x="221.7158" y="-58.2" font-family="Times,serif" font-size="14.00" fill="#000000">a</text>
</g>
<!-- q3&#45;&gt;q3 -->
<g id="edge4" class="edge">
<title>q3&#45;&gt;q3</title>
<path fill="none" stroke="#000000" d="M269.1409,-26.1211C280.1163,-26.8945 289.6085,-24.1875 289.6085,-18 289.6085,-13.8428 285.3235,-11.2567 279.1828,-10.2417"/>
<polygon fill="#000000" stroke="#000000" points="279.2608,-6.7424 269.1409,-9.8789 279.008,-13.7378 279.2608,-6.7424"/>
<text text-anchor="middle" x="297.9658" y="-13.8" font-family="Times,serif" font-size="14.00" fill="#000000">b,a</text>
</g>
<!-- q1&#45;&gt;q2_new -->
<g id="edge12" class="edge">
<title>q1&#45;&gt;q2_new</title>
<path fill="none" stroke="#000000" d="M150.0531,-177.6244C147.3405,-163.3532 143.6907,-142.8655 141.3939,-124.8 138.0216,-98.2756 135.6669,-67.8726 134.25,-46.3056"/>
<polygon fill="#000000" stroke="#000000" points="137.7347,-45.952 133.6117,-36.1923 130.7486,-46.3929 137.7347,-45.952"/>
<text text-anchor="middle" x="143.7158" y="-102.6" font-family="Times,serif" font-size="14.00" fill="#000000">a</text>
</g>
<!-- q1&#45;&gt;q2 -->
<g id="edge11" class="edge">
<title>q1&#45;&gt;q2</title>
<path fill="none" stroke="#000000" d="M159.6794,-177.63C163.8953,-165.1511 169.5906,-148.2928 174.3674,-134.1536"/>
<polygon fill="#000000" stroke="#000000" points="177.7641,-135.0344 177.6489,-124.4402 171.1323,-132.7939 177.7641,-135.0344"/>
<text text-anchor="middle" x="173.7158" y="-147" font-family="Times,serif" font-size="14.00" fill="#000000">a</text>
</g>
<!-- q1&#45;&gt;q1 -->
<g id="edge10" class="edge">
<title>q1&#45;&gt;q1</title>
<path fill="none" stroke="#000000" d="M178.1409,-203.7211C189.1163,-204.4945 198.6085,-201.7875 198.6085,-195.6 198.6085,-191.4428 194.3235,-188.8567 188.1828,-187.8417"/>
<polygon fill="#000000" stroke="#000000" points="188.2608,-184.3424 178.1409,-187.4789 188.008,-191.3378 188.2608,-184.3424"/>
<text text-anchor="middle" x="202.1085" y="-191.4" font-family="Times,serif" font-size="14.00" fill="#000000">b</text>
</g>
</g>
</svg>
